<svg width="29" height="20" viewBox="0 0 29 20" fill="none" xmlns="http://www.w3.org/2000/svg">
<path d="M2 8.7C1.28203 8.7 0.7 9.28203 0.7 10C0.7 10.718 1.28203 11.3 2 11.3V8.7ZM27.9192 10.9192C28.4269 10.4116 28.4269 9.58844 27.9192 9.08076L19.6461 0.807612C19.1384 0.299931 18.3153 0.299931 17.8076 0.807612C17.2999 1.31529 17.2999 2.13841 17.8076 2.64609L25.1615 10L17.8076 17.3539C17.2999 17.8616 17.2999 18.6847 17.8076 19.1924C18.3153 19.7001 19.1384 19.7001 19.6461 19.1924L27.9192 10.9192ZM2 11.3H27V8.7H2V11.3Z" fill="#131515"/>
</svg>
