<svg width="40" height="40" viewBox="0 0 40 40" fill="none" xmlns="http://www.w3.org/2000/svg">
<g id="Bear (&#231;&#134;&#138;)">
<path id="Vector" d="M4.16699 10.8839C4.16699 12.9494 5.24342 14.6012 6.66699 15.8334C5.77068 17.6221 5.00033 19.5615 5.00033 21.6667C5.00033 29.3513 11.7702 35.8334 20.0003 35.8334C28.2305 35.8334 35.0003 29.3513 35.0003 21.6667C35.0003 19.5615 34.23 17.6221 33.3337 15.8334C34.7572 14.6012 35.8337 12.8989 35.8337 10.8334C35.8337 7.12362 32.7677 4.16675 29.167 4.16675C26.4392 4.16675 24.3062 5.88357 23.3337 8.33341C22.2792 8.11251 21.1262 8.00513 20.0003 8.00513C18.8745 8.00513 17.7214 8.11251 16.667 8.33341C15.6945 5.88357 13.5615 4.16675 10.8337 4.16675C7.23298 4.16675 4.16699 7.17413 4.16699 10.8839Z" stroke="#E1F6FF" stroke-width="3" stroke-linejoin="round"/>
<path id="Vector_2" d="M25.2002 16.8C26.3048 16.8 27.2002 15.9046 27.2002 14.8C27.2002 13.6955 26.3048 12.8 25.2002 12.8C24.0956 12.8 23.2002 13.6955 23.2002 14.8C23.2002 15.9046 24.0956 16.8 25.2002 16.8Z" fill="#E1F6FF"/>
<path id="Vector_3" d="M14.7998 16.8C15.9044 16.8 16.7998 15.9046 16.7998 14.8C16.7998 13.6955 15.9044 12.8 14.7998 12.8C13.6952 12.8 12.7998 13.6955 12.7998 14.8C12.7998 15.9046 13.6952 16.8 14.7998 16.8Z" fill="#E1F6FF"/>
<path id="Vector_4" d="M19.9996 24C21.3251 24 22.3996 22.9254 22.3996 21.6C22.3996 20.2745 21.3251 19.2 19.9996 19.2C18.6741 19.2 17.5996 20.2745 17.5996 21.6C17.5996 22.9254 18.6741 24 19.9996 24Z" fill="#E1F6FF"/>
<path id="Vector_5" d="M23.3337 27.5C21.4368 29.3968 18.5638 29.3968 16.667 27.5" stroke="#E1F6FF" stroke-width="2" stroke-linecap="round"/>
</g>
</svg>
