<svg width="28" height="30" viewBox="0 0 28 30" fill="none" xmlns="http://www.w3.org/2000/svg">
<path d="M17.6728 18.858C18.6181 17.7967 19.145 16.363 19.145 14.8733C19.145 13.3835 18.6181 11.9498 17.6728 10.8886C16.7267 9.82645 15.4368 9.22327 14.0848 9.22327C12.7328 9.22327 11.443 9.82645 10.4968 10.8886C9.55155 11.9498 9.02465 13.3835 9.02465 14.8733C9.02465 16.363 9.55155 17.7967 10.4968 18.858C11.443 19.9201 12.7328 20.5233 14.0848 20.5233C15.4368 20.5233 16.7267 19.9201 17.6728 18.858ZM16.024 12.6531C16.5446 13.2375 16.8412 14.0357 16.8412 14.8733C16.8412 15.7108 16.5446 16.5091 16.024 17.0935C15.5042 17.677 14.8059 17.9983 14.0848 17.9983C13.3638 17.9983 12.6654 17.677 12.1457 17.0935C11.6251 16.5091 11.3285 15.7108 11.3285 14.8733C11.3285 14.0357 11.6251 13.2375 12.1457 12.6531C12.6654 12.0696 13.3638 11.7483 14.0848 11.7483C14.8059 11.7483 15.5042 12.0696 16.024 12.6531Z" fill="#E0F6FF" stroke="#E0F6FF" stroke-width="0.5"/>
<mask id="path-2-outside-1_627_1642" maskUnits="userSpaceOnUse" x="-0.276834" y="0" width="29" height="30" fill="black">
<rect fill="white" x="-0.276834" width="29" height="30"/>
<path d="M14.0854 1C14.4085 1 14.7316 1.01152 15.0535 1.03585C15.9803 1.10625 16.6873 1.82572 16.8901 2.7052L17.3177 4.56146C17.3408 4.66132 17.427 4.78037 17.591 4.84438C17.8911 4.95832 18.1862 5.08762 18.4753 5.231C18.6332 5.30909 18.7741 5.28732 18.8579 5.23356L20.4067 4.24014C21.1391 3.76903 22.1206 3.78823 22.8239 4.42832C23.3122 4.87511 23.7714 5.35773 24.1941 5.87365C24.8027 6.61359 24.8197 7.64798 24.3727 8.42121L23.4301 10.0522C23.379 10.1405 23.3596 10.289 23.4325 10.4554C23.5685 10.7601 23.6912 11.0712 23.8005 11.3874C23.8588 11.5602 23.973 11.6498 24.0678 11.6754L25.8291 12.126C26.6636 12.3398 27.3462 13.0849 27.4118 14.0617C27.458 14.7415 27.458 15.4225 27.4118 16.1023C27.3462 17.0791 26.6636 17.8241 25.8291 18.0379L24.0678 18.4885C23.973 18.5129 23.8601 18.6038 23.7993 18.7766C23.6912 19.0941 23.5685 19.4052 23.4325 19.7086C23.3584 19.875 23.379 20.0235 23.4301 20.1118L24.3727 21.744C24.8197 22.516 24.8014 23.5504 24.1941 24.2916C23.7702 24.8062 23.3122 25.2901 22.8227 25.7356C22.1206 26.377 21.1391 26.3949 20.4055 25.9238L18.8579 24.9304C18.7741 24.8766 18.6332 24.8562 18.4765 24.933C18.1871 25.0765 17.8917 25.2059 17.591 25.3209C17.427 25.3823 17.342 25.5027 17.3177 25.6025L16.8901 27.4588C16.6873 28.3382 15.9803 29.0577 15.0535 29.1268C14.4085 29.1755 13.7623 29.1755 13.1173 29.1268C12.1905 29.0577 11.4835 28.3382 11.2807 27.4588L10.8531 25.6025C10.83 25.5027 10.7438 25.3836 10.5798 25.3196C10.2793 25.2058 9.98417 25.0768 9.69551 24.933C9.5376 24.8549 9.39669 24.8766 9.31288 24.9304L7.76414 25.9238C7.03168 26.3949 6.05021 26.3757 5.3469 25.7356C4.85859 25.2889 4.39944 24.8062 3.97673 24.2903C3.36816 23.5504 3.35116 22.516 3.79817 21.7428L4.74077 20.1118C4.79179 20.0235 4.81122 19.875 4.73834 19.7098C4.60217 19.4048 4.47936 19.0934 4.37029 18.7766C4.31198 18.6038 4.1978 18.5141 4.10305 18.4885L2.34175 18.0379C1.50725 17.8241 0.824593 17.0791 0.757785 16.1023C0.711626 15.423 0.711626 14.741 0.757785 14.0617C0.824593 13.0849 1.50725 12.3398 2.34175 12.126L4.10305 11.6754C4.1978 11.6511 4.31077 11.5602 4.3715 11.3874C4.47961 11.0699 4.60229 10.7588 4.73834 10.4554C4.81244 10.289 4.79179 10.1405 4.74077 10.0522L3.79817 8.41993C3.35116 7.64798 3.36938 6.61359 3.97673 5.87237C4.40065 5.35773 4.85859 4.87383 5.34812 4.42832C6.05021 3.78695 7.03168 3.76903 7.76536 4.24014L9.31288 5.23356C9.39669 5.28732 9.5376 5.30781 9.69551 5.231C9.9846 5.08762 10.2798 4.95832 10.5798 4.8431C10.7438 4.78165 10.8288 4.66132 10.8531 4.56146L11.2807 2.7052C11.4835 1.82572 12.1905 1.10625 13.1173 1.03585C13.4368 1.0128 13.7599 1 14.0854 1ZM13.2473 2.95228C13.1805 2.9574 13.0833 3.01628 13.0517 3.15838L12.6229 5.01465C12.5321 5.38981 12.3546 5.73545 12.1062 6.02071C11.8578 6.30596 11.5462 6.52196 11.1993 6.64944C10.9519 6.74399 10.7087 6.85036 10.4705 6.9682C10.1393 7.13703 9.77358 7.21674 9.40603 7.20021C9.03847 7.18368 8.68053 7.07142 8.3642 6.87347L6.81668 5.88005C6.69764 5.80324 6.59075 5.83396 6.53973 5.88005C6.11711 6.26657 5.72094 6.68409 5.35419 7.1295C5.31046 7.18327 5.28131 7.29721 5.35419 7.42138L6.29679 9.05233C6.67821 9.72955 6.71222 10.5629 6.38668 11.2722C6.27487 11.5232 6.17394 11.7795 6.08422 12.0403C5.96342 12.4063 5.75839 12.7351 5.48747 12.9971C5.21656 13.2592 4.88822 13.4464 4.53184 13.5419L2.77053 13.9913C2.63692 14.0258 2.58104 14.1282 2.57618 14.1987C2.5361 14.7868 2.5361 15.3772 2.57618 15.9653C2.58104 16.0357 2.63692 16.1381 2.77175 16.1714L4.53306 16.6233C4.88903 16.719 5.21699 16.9061 5.48765 17.1679C5.75832 17.4297 5.96327 17.7581 6.08422 18.1237C6.17411 18.3848 6.27493 18.6409 6.38668 18.8918C6.71222 19.5997 6.67821 20.4331 6.29679 21.1104L5.35419 22.7426C5.28131 22.868 5.31046 22.9807 5.35419 23.0345C5.71981 23.48 6.11702 23.8986 6.53973 24.2839C6.59075 24.33 6.69886 24.3607 6.81668 24.2839L8.3642 23.2905C8.68032 23.092 9.03824 22.9793 9.40585 22.9626C9.77347 22.9458 10.1393 23.0255 10.4705 23.1945C10.7086 23.3135 10.9515 23.4198 11.1993 23.5145C11.5466 23.6418 11.8586 23.8579 12.1072 24.1434C12.3559 24.429 12.5335 24.775 12.6241 25.1506L13.0505 27.0069C13.0833 27.1477 13.1805 27.2066 13.2473 27.2117C13.8053 27.2539 14.3655 27.2539 14.9236 27.2117C14.9904 27.2066 15.0875 27.1477 15.1191 27.0056L15.5479 25.1493C15.6387 24.774 15.8163 24.4282 16.0647 24.1428C16.3131 23.8573 16.6246 23.641 16.9715 23.5133C17.2191 23.4197 17.4623 23.3137 17.7003 23.1958C18.0313 23.0269 18.3968 22.9472 18.7642 22.9638C19.1316 22.9803 19.4893 23.0925 19.8054 23.2905L21.3541 24.2839C21.4732 24.3607 21.5801 24.33 21.6311 24.2839C22.0538 23.8986 22.451 23.48 22.8166 23.0345C22.8604 22.9807 22.8895 22.8668 22.8166 22.7426L21.874 21.1104C21.6863 20.7772 21.5798 20.4003 21.5639 20.0131C21.548 19.626 21.6232 19.2408 21.7829 18.8918C21.8959 18.6409 21.9967 18.3848 22.0866 18.1237C22.2074 17.7576 22.4124 17.4289 22.6833 17.1668C22.9543 16.9048 23.2826 16.7176 23.639 16.622L25.4003 16.1727C25.5339 16.1381 25.5898 16.0357 25.5946 15.9653C25.6347 15.3772 25.6347 14.7868 25.5946 14.1987C25.5898 14.1282 25.5339 14.0258 25.3991 13.9925L23.6378 13.5406C22.8774 13.3461 22.3259 12.7405 22.0854 12.0403C21.997 11.7792 21.8965 11.5228 21.7841 11.2722C21.624 10.9231 21.5483 10.5377 21.564 10.1503C21.5797 9.76296 21.6862 9.38572 21.874 9.05233L22.8166 7.42138C22.8895 7.29593 22.8604 7.18327 22.8166 7.1295C22.4499 6.68409 22.0537 6.26657 21.6311 5.88005C21.5801 5.83396 21.472 5.80324 21.3541 5.88005L19.8054 6.87347C19.4893 7.07142 19.1316 7.18368 18.7642 7.20021C18.3968 7.21675 18.0313 7.13703 17.7003 6.9682C17.4623 6.84991 17.2191 6.74354 16.9715 6.64944C16.6244 6.52172 16.3127 6.30551 16.0641 6.02005C15.8155 5.73459 15.6377 5.38876 15.5467 5.01337L15.1203 3.1571C15.0875 3.01628 14.9904 2.9574 14.9236 2.95228C14.3655 2.91003 13.8053 2.91003 13.2473 2.95228Z"/>
</mask>
<path d="M14.0854 1C14.4085 1 14.7316 1.01152 15.0535 1.03585C15.9803 1.10625 16.6873 1.82572 16.8901 2.7052L17.3177 4.56146C17.3408 4.66132 17.427 4.78037 17.591 4.84438C17.8911 4.95832 18.1862 5.08762 18.4753 5.231C18.6332 5.30909 18.7741 5.28732 18.8579 5.23356L20.4067 4.24014C21.1391 3.76903 22.1206 3.78823 22.8239 4.42832C23.3122 4.87511 23.7714 5.35773 24.1941 5.87365C24.8027 6.61359 24.8197 7.64798 24.3727 8.42121L23.4301 10.0522C23.379 10.1405 23.3596 10.289 23.4325 10.4554C23.5685 10.7601 23.6912 11.0712 23.8005 11.3874C23.8588 11.5602 23.973 11.6498 24.0678 11.6754L25.8291 12.126C26.6636 12.3398 27.3462 13.0849 27.4118 14.0617C27.458 14.7415 27.458 15.4225 27.4118 16.1023C27.3462 17.0791 26.6636 17.8241 25.8291 18.0379L24.0678 18.4885C23.973 18.5129 23.8601 18.6038 23.7993 18.7766C23.6912 19.0941 23.5685 19.4052 23.4325 19.7086C23.3584 19.875 23.379 20.0235 23.4301 20.1118L24.3727 21.744C24.8197 22.516 24.8014 23.5504 24.1941 24.2916C23.7702 24.8062 23.3122 25.2901 22.8227 25.7356C22.1206 26.377 21.1391 26.3949 20.4055 25.9238L18.8579 24.9304C18.7741 24.8766 18.6332 24.8562 18.4765 24.933C18.1871 25.0765 17.8917 25.2059 17.591 25.3209C17.427 25.3823 17.342 25.5027 17.3177 25.6025L16.8901 27.4588C16.6873 28.3382 15.9803 29.0577 15.0535 29.1268C14.4085 29.1755 13.7623 29.1755 13.1173 29.1268C12.1905 29.0577 11.4835 28.3382 11.2807 27.4588L10.8531 25.6025C10.83 25.5027 10.7438 25.3836 10.5798 25.3196C10.2793 25.2058 9.98417 25.0768 9.69551 24.933C9.5376 24.8549 9.39669 24.8766 9.31288 24.9304L7.76414 25.9238C7.03168 26.3949 6.05021 26.3757 5.3469 25.7356C4.85859 25.2889 4.39944 24.8062 3.97673 24.2903C3.36816 23.5504 3.35116 22.516 3.79817 21.7428L4.74077 20.1118C4.79179 20.0235 4.81122 19.875 4.73834 19.7098C4.60217 19.4048 4.47936 19.0934 4.37029 18.7766C4.31198 18.6038 4.1978 18.5141 4.10305 18.4885L2.34175 18.0379C1.50725 17.8241 0.824593 17.0791 0.757785 16.1023C0.711626 15.423 0.711626 14.741 0.757785 14.0617C0.824593 13.0849 1.50725 12.3398 2.34175 12.126L4.10305 11.6754C4.1978 11.6511 4.31077 11.5602 4.3715 11.3874C4.47961 11.0699 4.60229 10.7588 4.73834 10.4554C4.81244 10.289 4.79179 10.1405 4.74077 10.0522L3.79817 8.41993C3.35116 7.64798 3.36938 6.61359 3.97673 5.87237C4.40065 5.35773 4.85859 4.87383 5.34812 4.42832C6.05021 3.78695 7.03168 3.76903 7.76536 4.24014L9.31288 5.23356C9.39669 5.28732 9.5376 5.30781 9.69551 5.231C9.9846 5.08762 10.2798 4.95832 10.5798 4.8431C10.7438 4.78165 10.8288 4.66132 10.8531 4.56146L11.2807 2.7052C11.4835 1.82572 12.1905 1.10625 13.1173 1.03585C13.4368 1.0128 13.7599 1 14.0854 1ZM13.2473 2.95228C13.1805 2.9574 13.0833 3.01628 13.0517 3.15838L12.6229 5.01465C12.5321 5.38981 12.3546 5.73545 12.1062 6.02071C11.8578 6.30596 11.5462 6.52196 11.1993 6.64944C10.9519 6.74399 10.7087 6.85036 10.4705 6.9682C10.1393 7.13703 9.77358 7.21674 9.40603 7.20021C9.03847 7.18368 8.68053 7.07142 8.3642 6.87347L6.81668 5.88005C6.69764 5.80324 6.59075 5.83396 6.53973 5.88005C6.11711 6.26657 5.72094 6.68409 5.35419 7.1295C5.31046 7.18327 5.28131 7.29721 5.35419 7.42138L6.29679 9.05233C6.67821 9.72955 6.71222 10.5629 6.38668 11.2722C6.27487 11.5232 6.17394 11.7795 6.08422 12.0403C5.96342 12.4063 5.75839 12.7351 5.48747 12.9971C5.21656 13.2592 4.88822 13.4464 4.53184 13.5419L2.77053 13.9913C2.63692 14.0258 2.58104 14.1282 2.57618 14.1987C2.5361 14.7868 2.5361 15.3772 2.57618 15.9653C2.58104 16.0357 2.63692 16.1381 2.77175 16.1714L4.53306 16.6233C4.88903 16.719 5.21699 16.9061 5.48765 17.1679C5.75832 17.4297 5.96327 17.7581 6.08422 18.1237C6.17411 18.3848 6.27493 18.6409 6.38668 18.8918C6.71222 19.5997 6.67821 20.4331 6.29679 21.1104L5.35419 22.7426C5.28131 22.868 5.31046 22.9807 5.35419 23.0345C5.71981 23.48 6.11702 23.8986 6.53973 24.2839C6.59075 24.33 6.69886 24.3607 6.81668 24.2839L8.3642 23.2905C8.68032 23.092 9.03824 22.9793 9.40585 22.9626C9.77347 22.9458 10.1393 23.0255 10.4705 23.1945C10.7086 23.3135 10.9515 23.4198 11.1993 23.5145C11.5466 23.6418 11.8586 23.8579 12.1072 24.1434C12.3559 24.429 12.5335 24.775 12.6241 25.1506L13.0505 27.0069C13.0833 27.1477 13.1805 27.2066 13.2473 27.2117C13.8053 27.2539 14.3655 27.2539 14.9236 27.2117C14.9904 27.2066 15.0875 27.1477 15.1191 27.0056L15.5479 25.1493C15.6387 24.774 15.8163 24.4282 16.0647 24.1428C16.3131 23.8573 16.6246 23.641 16.9715 23.5133C17.2191 23.4197 17.4623 23.3137 17.7003 23.1958C18.0313 23.0269 18.3968 22.9472 18.7642 22.9638C19.1316 22.9803 19.4893 23.0925 19.8054 23.2905L21.3541 24.2839C21.4732 24.3607 21.5801 24.33 21.6311 24.2839C22.0538 23.8986 22.451 23.48 22.8166 23.0345C22.8604 22.9807 22.8895 22.8668 22.8166 22.7426L21.874 21.1104C21.6863 20.7772 21.5798 20.4003 21.5639 20.0131C21.548 19.626 21.6232 19.2408 21.7829 18.8918C21.8959 18.6409 21.9967 18.3848 22.0866 18.1237C22.2074 17.7576 22.4124 17.4289 22.6833 17.1668C22.9543 16.9048 23.2826 16.7176 23.639 16.622L25.4003 16.1727C25.5339 16.1381 25.5898 16.0357 25.5946 15.9653C25.6347 15.3772 25.6347 14.7868 25.5946 14.1987C25.5898 14.1282 25.5339 14.0258 25.3991 13.9925L23.6378 13.5406C22.8774 13.3461 22.3259 12.7405 22.0854 12.0403C21.997 11.7792 21.8965 11.5228 21.7841 11.2722C21.624 10.9231 21.5483 10.5377 21.564 10.1503C21.5797 9.76296 21.6862 9.38572 21.874 9.05233L22.8166 7.42138C22.8895 7.29593 22.8604 7.18327 22.8166 7.1295C22.4499 6.68409 22.0537 6.26657 21.6311 5.88005C21.5801 5.83396 21.472 5.80324 21.3541 5.88005L19.8054 6.87347C19.4893 7.07142 19.1316 7.18368 18.7642 7.20021C18.3968 7.21675 18.0313 7.13703 17.7003 6.9682C17.4623 6.84991 17.2191 6.74354 16.9715 6.64944C16.6244 6.52172 16.3127 6.30551 16.0641 6.02005C15.8155 5.73459 15.6377 5.38876 15.5467 5.01337L15.1203 3.1571C15.0875 3.01628 14.9904 2.9574 14.9236 2.95228C14.3655 2.91003 13.8053 2.91003 13.2473 2.95228Z" fill="#E0F6FF"/>
<path d="M14.0854 1C14.4085 1 14.7316 1.01152 15.0535 1.03585C15.9803 1.10625 16.6873 1.82572 16.8901 2.7052L17.3177 4.56146C17.3408 4.66132 17.427 4.78037 17.591 4.84438C17.8911 4.95832 18.1862 5.08762 18.4753 5.231C18.6332 5.30909 18.7741 5.28732 18.8579 5.23356L20.4067 4.24014C21.1391 3.76903 22.1206 3.78823 22.8239 4.42832C23.3122 4.87511 23.7714 5.35773 24.1941 5.87365C24.8027 6.61359 24.8197 7.64798 24.3727 8.42121L23.4301 10.0522C23.379 10.1405 23.3596 10.289 23.4325 10.4554C23.5685 10.7601 23.6912 11.0712 23.8005 11.3874C23.8588 11.5602 23.973 11.6498 24.0678 11.6754L25.8291 12.126C26.6636 12.3398 27.3462 13.0849 27.4118 14.0617C27.458 14.7415 27.458 15.4225 27.4118 16.1023C27.3462 17.0791 26.6636 17.8241 25.8291 18.0379L24.0678 18.4885C23.973 18.5129 23.8601 18.6038 23.7993 18.7766C23.6912 19.0941 23.5685 19.4052 23.4325 19.7086C23.3584 19.875 23.379 20.0235 23.4301 20.1118L24.3727 21.744C24.8197 22.516 24.8014 23.5504 24.1941 24.2916C23.7702 24.8062 23.3122 25.2901 22.8227 25.7356C22.1206 26.377 21.1391 26.3949 20.4055 25.9238L18.8579 24.9304C18.7741 24.8766 18.6332 24.8562 18.4765 24.933C18.1871 25.0765 17.8917 25.2059 17.591 25.3209C17.427 25.3823 17.342 25.5027 17.3177 25.6025L16.8901 27.4588C16.6873 28.3382 15.9803 29.0577 15.0535 29.1268C14.4085 29.1755 13.7623 29.1755 13.1173 29.1268C12.1905 29.0577 11.4835 28.3382 11.2807 27.4588L10.8531 25.6025C10.83 25.5027 10.7438 25.3836 10.5798 25.3196C10.2793 25.2058 9.98417 25.0768 9.69551 24.933C9.5376 24.8549 9.39669 24.8766 9.31288 24.9304L7.76414 25.9238C7.03168 26.3949 6.05021 26.3757 5.3469 25.7356C4.85859 25.2889 4.39944 24.8062 3.97673 24.2903C3.36816 23.5504 3.35116 22.516 3.79817 21.7428L4.74077 20.1118C4.79179 20.0235 4.81122 19.875 4.73834 19.7098C4.60217 19.4048 4.47936 19.0934 4.37029 18.7766C4.31198 18.6038 4.1978 18.5141 4.10305 18.4885L2.34175 18.0379C1.50725 17.8241 0.824593 17.0791 0.757785 16.1023C0.711626 15.423 0.711626 14.741 0.757785 14.0617C0.824593 13.0849 1.50725 12.3398 2.34175 12.126L4.10305 11.6754C4.1978 11.6511 4.31077 11.5602 4.3715 11.3874C4.47961 11.0699 4.60229 10.7588 4.73834 10.4554C4.81244 10.289 4.79179 10.1405 4.74077 10.0522L3.79817 8.41993C3.35116 7.64798 3.36938 6.61359 3.97673 5.87237C4.40065 5.35773 4.85859 4.87383 5.34812 4.42832C6.05021 3.78695 7.03168 3.76903 7.76536 4.24014L9.31288 5.23356C9.39669 5.28732 9.5376 5.30781 9.69551 5.231C9.9846 5.08762 10.2798 4.95832 10.5798 4.8431C10.7438 4.78165 10.8288 4.66132 10.8531 4.56146L11.2807 2.7052C11.4835 1.82572 12.1905 1.10625 13.1173 1.03585C13.4368 1.0128 13.7599 1 14.0854 1ZM13.2473 2.95228C13.1805 2.9574 13.0833 3.01628 13.0517 3.15838L12.6229 5.01465C12.5321 5.38981 12.3546 5.73545 12.1062 6.02071C11.8578 6.30596 11.5462 6.52196 11.1993 6.64944C10.9519 6.74399 10.7087 6.85036 10.4705 6.9682C10.1393 7.13703 9.77358 7.21674 9.40603 7.20021C9.03847 7.18368 8.68053 7.07142 8.3642 6.87347L6.81668 5.88005C6.69764 5.80324 6.59075 5.83396 6.53973 5.88005C6.11711 6.26657 5.72094 6.68409 5.35419 7.1295C5.31046 7.18327 5.28131 7.29721 5.35419 7.42138L6.29679 9.05233C6.67821 9.72955 6.71222 10.5629 6.38668 11.2722C6.27487 11.5232 6.17394 11.7795 6.08422 12.0403C5.96342 12.4063 5.75839 12.7351 5.48747 12.9971C5.21656 13.2592 4.88822 13.4464 4.53184 13.5419L2.77053 13.9913C2.63692 14.0258 2.58104 14.1282 2.57618 14.1987C2.5361 14.7868 2.5361 15.3772 2.57618 15.9653C2.58104 16.0357 2.63692 16.1381 2.77175 16.1714L4.53306 16.6233C4.88903 16.719 5.21699 16.9061 5.48765 17.1679C5.75832 17.4297 5.96327 17.7581 6.08422 18.1237C6.17411 18.3848 6.27493 18.6409 6.38668 18.8918C6.71222 19.5997 6.67821 20.4331 6.29679 21.1104L5.35419 22.7426C5.28131 22.868 5.31046 22.9807 5.35419 23.0345C5.71981 23.48 6.11702 23.8986 6.53973 24.2839C6.59075 24.33 6.69886 24.3607 6.81668 24.2839L8.3642 23.2905C8.68032 23.092 9.03824 22.9793 9.40585 22.9626C9.77347 22.9458 10.1393 23.0255 10.4705 23.1945C10.7086 23.3135 10.9515 23.4198 11.1993 23.5145C11.5466 23.6418 11.8586 23.8579 12.1072 24.1434C12.3559 24.429 12.5335 24.775 12.6241 25.1506L13.0505 27.0069C13.0833 27.1477 13.1805 27.2066 13.2473 27.2117C13.8053 27.2539 14.3655 27.2539 14.9236 27.2117C14.9904 27.2066 15.0875 27.1477 15.1191 27.0056L15.5479 25.1493C15.6387 24.774 15.8163 24.4282 16.0647 24.1428C16.3131 23.8573 16.6246 23.641 16.9715 23.5133C17.2191 23.4197 17.4623 23.3137 17.7003 23.1958C18.0313 23.0269 18.3968 22.9472 18.7642 22.9638C19.1316 22.9803 19.4893 23.0925 19.8054 23.2905L21.3541 24.2839C21.4732 24.3607 21.5801 24.33 21.6311 24.2839C22.0538 23.8986 22.451 23.48 22.8166 23.0345C22.8604 22.9807 22.8895 22.8668 22.8166 22.7426L21.874 21.1104C21.6863 20.7772 21.5798 20.4003 21.5639 20.0131C21.548 19.626 21.6232 19.2408 21.7829 18.8918C21.8959 18.6409 21.9967 18.3848 22.0866 18.1237C22.2074 17.7576 22.4124 17.4289 22.6833 17.1668C22.9543 16.9048 23.2826 16.7176 23.639 16.622L25.4003 16.1727C25.5339 16.1381 25.5898 16.0357 25.5946 15.9653C25.6347 15.3772 25.6347 14.7868 25.5946 14.1987C25.5898 14.1282 25.5339 14.0258 25.3991 13.9925L23.6378 13.5406C22.8774 13.3461 22.3259 12.7405 22.0854 12.0403C21.997 11.7792 21.8965 11.5228 21.7841 11.2722C21.624 10.9231 21.5483 10.5377 21.564 10.1503C21.5797 9.76296 21.6862 9.38572 21.874 9.05233L22.8166 7.42138C22.8895 7.29593 22.8604 7.18327 22.8166 7.1295C22.4499 6.68409 22.0537 6.26657 21.6311 5.88005C21.5801 5.83396 21.472 5.80324 21.3541 5.88005L19.8054 6.87347C19.4893 7.07142 19.1316 7.18368 18.7642 7.20021C18.3968 7.21675 18.0313 7.13703 17.7003 6.9682C17.4623 6.84991 17.2191 6.74354 16.9715 6.64944C16.6244 6.52172 16.3127 6.30551 16.0641 6.02005C15.8155 5.73459 15.6377 5.38876 15.5467 5.01337L15.1203 3.1571C15.0875 3.01628 14.9904 2.9574 14.9236 2.95228C14.3655 2.91003 13.8053 2.91003 13.2473 2.95228Z" stroke="#E0F6FF" mask="url(#path-2-outside-1_627_1642)"/>
</svg>
