<svg width="24" height="22" viewBox="0 0 24 22" fill="none" xmlns="http://www.w3.org/2000/svg">
<path d="M12.0848 6C12.8484 2.71042 15.7321 1.03074 22.0106 1.00001C22.111 0.999593 22.2104 1.02087 22.3032 1.0626C22.396 1.10433 22.4804 1.1657 22.5513 1.24316C22.6223 1.32063 22.6785 1.41266 22.7168 1.51395C22.755 1.61524 22.7745 1.72379 22.7741 1.83334V16.8333C22.7741 17.0543 22.6937 17.2663 22.5505 17.4226C22.4073 17.5789 22.2131 17.6667 22.0106 17.6667C15.9024 17.6667 13.5427 19.0109 12.0848 21M12.0848 6C11.3213 2.71042 8.43759 1.03074 2.15907 1.00001C2.0587 0.999593 1.95924 1.02087 1.86644 1.0626C1.77363 1.10433 1.68931 1.1657 1.61834 1.24316C1.54736 1.32063 1.49114 1.41266 1.4529 1.51395C1.41466 1.61524 1.39517 1.72379 1.39555 1.83334V16.7328C1.39555 17.2474 1.6876 17.6667 2.15907 17.6667C8.26723 17.6667 10.6356 19.0208 12.0848 21M12.0848 6V21" stroke="#E0F6FF" stroke-width="2" stroke-linecap="round" stroke-linejoin="round"/>
</svg>
