<svg width="59" height="41" viewBox="0 0 59 41" fill="none" xmlns="http://www.w3.org/2000/svg">
<g id="arcticons:tapemeasure" clip-path="url(#clip0_657_1941)">
<path id="Vector" d="M20.9652 13.4607C20.3017 13.7412 21.1412 14.2312 21.6057 14.234C21.817 14.2627 22.0319 14.238 22.2318 14.162C22.4318 14.086 22.6108 13.961 22.7534 13.7978C22.896 13.6345 22.998 13.438 23.0505 13.2251C23.103 13.0122 23.1044 12.7893 23.0547 12.5757C22.639 11.3683 20.6754 10.8826 19.1452 11.2636C16.9393 11.815 16.0889 13.6924 16.9271 15.1706C18.0267 17.1136 21.3268 17.845 23.9214 17.0284C27.1497 16.0137 28.3441 13.1731 26.9005 10.9468C25.1672 8.27656 20.5224 7.30087 16.8946 8.54875C12.656 10.0074 11.1191 13.8068 13.1639 16.7646C15.5093 20.1537 21.492 21.3737 26.1327 19.6973C31.3733 17.8059 33.2489 13.0531 30.6069 9.37787C27.6616 5.27552 20.3545 3.81408 14.7117 5.91341C8.47979 8.23189 6.26844 13.9269 9.49813 18.3168C13.0366 23.124 21.6585 24.8242 28.294 22.3061C35.5076 19.5661 38.0534 12.9345 34.2388 7.83966C30.1126 2.33171 20.1852 0.391496 12.568 3.32833C4.37531 6.4857 1.49771 14.0483 5.89469 19.8424C8.69104 23.5288 14.0116 26.0022 19.8372 26.414" stroke="#E1F6FF" stroke-width="3" stroke-linecap="round" stroke-linejoin="round"/>
<path id="Vector_2" d="M19.8375 26.4142H56.6573V39.0367H19.7427C10.7808 39.0367 3.85156 32.8811 3.85156 24.8369V13.7931M10.7389 36.3539V33.1994M15.3308 38.2481V31.9361M19.9228 39.0367V35.8821M24.5148 39.0367V32.7248M29.1054 39.0367V35.8821M33.6988 39.0367V32.7248M38.2894 39.0367V35.8821M47.4733 39.0367V35.8821M42.8827 39.0367V32.7248M52.0653 39.0367V32.7248M35.9941 26.2565V12.5312" stroke="#E1F6FF" stroke-width="3" stroke-linecap="round" stroke-linejoin="round"/>
</g>
<defs>
<clipPath id="clip0_657_1941">
<rect width="58" height="41" fill="white" transform="translate(0.75)"/>
</clipPath>
</defs>
</svg>
