<svg width="50" height="50" viewBox="0 0 50 50" fill="none" xmlns="http://www.w3.org/2000/svg">
<g clip-path="url(#clip0_514_2356)">
<path d="M31.2505 39.5833H18.7505C17.5005 39.5833 16.6671 38.75 16.6671 37.5V36.4583C16.6671 33.5417 15.4171 30.625 13.1255 28.3333C9.79214 25 8.12547 20.625 8.3338 16.0417C8.75047 7.29167 16.0421 0.208333 24.7921 0H25.0005C34.1671 0 41.6671 7.5 41.6671 16.6667C41.6671 21.0417 40.0005 25.4167 36.6671 28.5417C34.3755 30.625 33.3338 33.5417 33.3338 36.4583V37.5C33.3338 38.75 32.5005 39.5833 31.2505 39.5833ZM20.8338 35.4167H29.1671C29.3755 31.6667 31.0421 28.3333 33.7505 25.4167C36.2505 23.125 37.5005 20 37.5005 16.6667C37.5005 9.79167 31.8755 4.16667 25.0005 4.16667H24.7921C18.3338 4.375 12.7088 9.58333 12.5005 16.25C12.2921 19.5833 13.7505 22.9167 16.0421 25.4167C18.9588 28.3333 20.6255 31.875 20.8338 35.4167Z" fill="#E0F6FF"/>
<path d="M24.9993 49.9997C20.416 49.9997 16.666 46.2497 16.666 41.6663V37.4997C16.666 36.2497 17.4993 35.4163 18.7493 35.4163H31.2493C32.4993 35.4163 33.3327 36.2497 33.3327 37.4997V41.6663C33.3327 46.2497 29.5827 49.9997 24.9993 49.9997ZM20.8327 39.583V41.6663C20.8327 43.958 22.7077 45.833 24.9993 45.833C27.291 45.833 29.166 43.958 29.166 41.6663V39.583H20.8327ZM18.7493 18.7497C17.4993 18.7497 16.666 17.9163 16.666 16.6663C16.666 12.083 20.416 8.33301 24.9993 8.33301C26.2493 8.33301 27.0827 9.16634 27.0827 10.4163C27.0827 11.6663 26.2493 12.4997 24.9993 12.4997C22.7077 12.4997 20.8327 14.3747 20.8327 16.6663C20.8327 17.9163 19.9993 18.7497 18.7493 18.7497Z" fill="#E0F6FF"/>
</g>
<defs>
<clipPath id="clip0_514_2356">
<rect width="50" height="50" fill="white"/>
</clipPath>
</defs>
</svg>
