<svg width="63" height="63" viewBox="0 0 63 63" fill="none" xmlns="http://www.w3.org/2000/svg">
<g id="&#240;&#159;&#166;&#134; icon &#34;weight&#34;">
<path id="Vector" d="M0 0H63V63H0V0Z" fill="white" fill-opacity="0.01"/>
<path id="Vector_2" d="M53.8125 5.25H9.1875C7.01288 5.25 5.25 7.01288 5.25 9.1875V53.8125C5.25 55.9872 7.01288 57.75 9.1875 57.75H53.8125C55.9872 57.75 57.75 55.9872 57.75 53.8125V9.1875C57.75 7.01288 55.9872 5.25 53.8125 5.25Z" stroke="#E1F6FF" stroke-width="4" stroke-linejoin="round"/>
<path id="Vector_3" d="M15.75 25.0078C20.1139 19.7578 25.3639 17.1328 31.5 17.1328C37.6361 17.1328 42.8861 19.7578 47.25 25.0078" stroke="#E1F6FF" stroke-width="4" stroke-linecap="round"/>
<path id="Vector_4" d="M31.5 40.6875C33.6747 40.6875 35.4375 38.9247 35.4375 36.75C35.4375 34.5753 33.6747 32.8125 31.5 32.8125C29.3253 32.8125 27.5625 34.5753 27.5625 36.75C27.5625 38.9247 29.3253 40.6875 31.5 40.6875Z" fill="#E1F6FF"/>
<path id="Vector_5" d="M24.9375 27.5625L31.5109 36.75" stroke="#E1F6FF" stroke-width="4" stroke-linecap="round"/>
</g>
</svg>
