<svg width="22" height="29" viewBox="0 0 22 29" fill="none" xmlns="http://www.w3.org/2000/svg">
<path d="M19.9926 10.3571H12.8664V2.07143H2.17709V26.9286H19.9926V10.3571ZM19.255 8.28571L14.6479 2.929V8.28571H19.255ZM1.28632 0H14.6479L21.7741 8.28571V27.9643C21.7741 28.239 21.6803 28.5024 21.5132 28.6966C21.3462 28.8909 21.1196 29 20.8834 29H1.28632C1.05007 29 0.8235 28.8909 0.656448 28.6966C0.489395 28.5024 0.395546 28.239 0.395546 27.9643V1.03571C0.395546 0.761026 0.489395 0.497588 0.656448 0.303354C0.8235 0.10912 1.05007 0 1.28632 0ZM5.74019 14.5H16.4295V16.5714H5.74019V14.5ZM5.74019 8.28571H10.1941V10.3571H5.74019V8.28571ZM5.74019 20.7143H16.4295V22.7857H5.74019V20.7143Z" fill="#E0F6FF"/>
</svg>
