<svg width="17" height="26" viewBox="0 0 17 26" fill="none" xmlns="http://www.w3.org/2000/svg">
<g id="Group 93">
<path id="Vector" d="M11.6903 20.177H5.3186C4.68143 20.177 4.25665 19.7522 4.25665 19.115V18.584C4.25665 17.0973 3.61948 15.6106 2.45134 14.4425C0.75223 12.7433 -0.0973267 10.5133 0.00886784 8.17698C0.221257 3.71681 3.93807 0.106195 8.39824 0H8.50443C13.177 0 17 3.823 17 8.49557C17 10.7257 16.1504 12.9557 14.4513 14.5487C13.2832 15.6106 12.7522 17.0973 12.7522 18.584V19.115C12.7522 19.7522 12.3274 20.177 11.6903 20.177ZM6.38054 18.0531H10.6283C10.7345 16.1416 11.5841 14.4425 12.9646 12.9557C14.2389 11.7876 14.8761 10.1947 14.8761 8.49557C14.8761 4.99114 12.0089 2.12389 8.50443 2.12389H8.39824C5.10621 2.23009 2.23895 4.88495 2.13276 8.28318C2.02656 9.98229 2.76993 11.6814 3.93807 12.9557C5.42479 14.4425 6.27435 16.2478 6.38054 18.0531Z" fill="#E0F6FF"/>
<path id="Vector_2" d="M8.50437 25.4867C6.16809 25.4867 4.25659 23.5752 4.25659 21.2389V19.115C4.25659 18.4778 4.68137 18.053 5.31854 18.053H11.6902C12.3274 18.053 12.7522 18.4778 12.7522 19.115V21.2389C12.7522 23.5752 10.8407 25.4867 8.50437 25.4867ZM6.38048 20.1769V21.2389C6.38048 22.407 7.33623 23.3628 8.50437 23.3628C9.67251 23.3628 10.6283 22.407 10.6283 21.2389V20.1769H6.38048ZM5.31854 9.55747C4.68137 9.55747 4.25659 9.13269 4.25659 8.49552C4.25659 6.15924 6.16809 4.24774 8.50437 4.24774C9.14154 4.24774 9.56632 4.67252 9.56632 5.30969C9.56632 5.94685 9.14154 6.37163 8.50437 6.37163C7.33623 6.37163 6.38048 7.32738 6.38048 8.49552C6.38048 9.13269 5.9557 9.55747 5.31854 9.55747Z" fill="#E0F6FF"/>
</g>
</svg>
