<svg width="24" height="25" viewBox="0 0 24 25" fill="none" xmlns="http://www.w3.org/2000/svg">
<path d="M0.504772 7.14286V0H7.12195V7.14286H0.504772ZM5.46766 5.35714V1.78571H2.15907V5.35714H5.46766ZM8.77625 7.14286V0H15.3934V7.14286H8.77625ZM13.7391 5.35714V1.78571H10.4305V5.35714H13.7391ZM17.0477 7.14286V0H23.6649V7.14286H17.0477ZM18.702 5.35714H22.0106V1.78571H18.702V5.35714ZM0.504772 16.0714V8.92857H7.12195V16.0714H0.504772ZM5.46766 14.2857V10.7143H2.15907V14.2857H5.46766ZM8.77625 16.0714V8.92857H15.3934V16.0714H8.77625ZM13.7391 14.2857V10.7143H10.4305V14.2857H13.7391ZM17.0477 16.0714V8.92857H23.6649V16.0714H17.0477ZM22.0106 14.2857V10.7143H18.702V14.2857H22.0106ZM0.504772 25V17.8571H7.12195V25H0.504772ZM2.15907 23.2143H5.46766V19.6429H2.15907V23.2143ZM8.77625 25V17.8571H15.3934V25H8.77625ZM10.4305 23.2143H13.7391V19.6429H10.4305V23.2143ZM17.0477 25V17.8571H23.6649V25H17.0477ZM18.702 23.2143H22.0106V19.6429H18.702V23.2143Z" fill="#E0F6FF"/>
</svg>
