<svg width="22" height="26" viewBox="0 0 22 26" fill="none" xmlns="http://www.w3.org/2000/svg">
<path d="M21.2519 11.0086L12.3442 0.608728C12.0101 0.218952 11.5571 0 11.0848 0C10.6125 0 10.1596 0.218952 9.8255 0.608728L0.917773 11.0086C0.751537 11.2012 0.619763 11.4305 0.530112 11.6832C0.440462 11.9358 0.394723 12.2067 0.395557 12.4802V24.96C0.395557 25.2358 0.489406 25.5004 0.656459 25.6954C0.823511 25.8904 1.05008 26 1.28633 26H8.41252C8.64876 26 8.87533 25.8904 9.04239 25.6954C9.20944 25.5004 9.30329 25.2358 9.30329 24.96V17.6801H12.8664V24.96C12.8664 25.2358 12.9602 25.5004 13.1273 25.6954C13.2943 25.8904 13.5209 26 13.7572 26H20.8833C21.1196 26 21.3462 25.8904 21.5132 25.6954C21.6803 25.5004 21.7741 25.2358 21.7741 24.96V12.4802C21.7749 12.2067 21.7292 11.9358 21.6396 11.6832C21.5499 11.4305 21.4181 11.2012 21.2519 11.0086ZM19.9926 23.92H14.6479V16.6401C14.6479 16.3643 14.5541 16.0998 14.387 15.9047C14.22 15.7097 13.9934 15.6001 13.7572 15.6001H8.41252C8.17627 15.6001 7.9497 15.7097 7.78264 15.9047C7.61559 16.0998 7.52174 16.3643 7.52174 16.6401V23.92H2.1771V12.4802L11.0848 2.08031L19.9926 12.4802V23.92Z" fill="#E0F6FF"/>
</svg>
