<svg width="101" height="31" viewBox="0 0 101 31" fill="none" xmlns="http://www.w3.org/2000/svg">
<path d="M8.064 9.39V12H0.864V0.713999H3.654V9.39H8.064ZM16.9369 9.39V12H9.16088V0.713999H16.7749V3.234H11.9509V5.106H16.1089V7.446H11.9509V9.39H16.9369ZM22.5328 7.788L20.2468 7.248C19.3348 7.032 18.7108 6.702 18.3748 6.258C18.0508 5.814 17.8888 5.178 17.8888 4.35C17.8888 3.042 18.2308 2.082 18.9148 1.47C19.6108 0.845999 20.6848 0.534 22.1368 0.534C22.7368 0.534 23.2708 0.558 23.7388 0.606C24.2068 0.654 24.6388 0.738 25.0348 0.858V3.36C24.1228 3.204 23.4928 3.114 23.1448 3.09C22.8088 3.066 22.4548 3.054 22.0828 3.054C21.5788 3.054 21.2128 3.138 20.9848 3.306C20.7568 3.474 20.6428 3.756 20.6428 4.152C20.6428 4.344 20.6788 4.494 20.7508 4.602C20.8228 4.698 20.9608 4.77 21.1648 4.818L23.3248 5.322C23.9488 5.466 24.3988 5.61 24.6748 5.754C24.9508 5.886 25.1728 6.06 25.3408 6.276C25.5328 6.504 25.6708 6.798 25.7548 7.158C25.8508 7.518 25.8988 7.956 25.8988 8.472C25.8988 9.78 25.5508 10.728 24.8548 11.316C24.1588 11.892 23.0788 12.18 21.6148 12.18C20.8708 12.18 20.1628 12.132 19.4908 12.036C18.8188 11.952 18.2968 11.844 17.9248 11.712V9.066C18.4048 9.222 18.9748 9.348 19.6348 9.444C20.2948 9.528 20.9548 9.57 21.6148 9.57C22.1428 9.57 22.5088 9.504 22.7128 9.372C22.9168 9.24 23.0188 8.976 23.0188 8.58C23.0188 8.328 22.9828 8.148 22.9108 8.04C22.8508 7.92 22.7248 7.836 22.5328 7.788ZM31.4269 12H28.4929L32.6689 0.713999H35.5669L39.6349 12H36.7189L36.1249 10.11H32.0209L31.4269 12ZM34.0549 3.486C33.9589 3.822 33.8509 4.182 33.7309 4.566C33.6229 4.938 33.4369 5.55 33.1729 6.402L32.7049 7.896H35.4229L34.9549 6.402C34.7989 5.946 34.6429 5.466 34.4869 4.962C34.3309 4.446 34.1869 3.954 34.0549 3.486ZM50.2231 0.713999V12H47.5591L43.0951 5.484V12H40.4851V0.713999H43.1311L47.6131 7.482V0.713999H50.2231ZM54.736 0.713999V12H51.946V0.713999H54.736ZM67.7676 0.713999V12H65.1576V5.232L63.2316 9.84H60.9636L59.0736 5.232V12H56.4636V0.713999H59.8656L62.1516 6.402L64.4916 0.713999H67.7676ZM71.505 12H68.571L72.747 0.713999H75.645L79.713 12H76.797L76.203 10.11H72.099L71.505 12ZM74.133 3.486C74.037 3.822 73.929 4.182 73.809 4.566C73.701 4.938 73.515 5.55 73.251 6.402L72.783 7.896H75.501L75.033 6.402C74.877 5.946 74.721 5.466 74.565 4.962C74.409 4.446 74.265 3.954 74.133 3.486ZM86.8223 7.248V0.713999H89.6123V7.248C89.6123 8.892 89.2103 10.128 88.4063 10.956C87.6023 11.772 86.3963 12.18 84.7883 12.18C83.0963 12.18 81.8603 11.79 81.0803 11.01C80.3123 10.23 79.9283 8.976 79.9283 7.248V0.713999H82.7183V7.248C82.7183 8.16 82.8563 8.778 83.1323 9.102C83.4203 9.414 83.9723 9.57 84.7883 9.57C85.5923 9.57 86.1323 9.414 86.4083 9.102C86.6843 8.778 86.8223 8.16 86.8223 7.248ZM97.2267 6.132L100.971 12H97.5687L95.3727 8.4L93.2667 12H90.2067L93.9147 6.24L90.4227 0.713999H93.8247L95.7147 3.936L97.6227 0.713999H100.593L97.2267 6.132ZM4.806 30H0.864V18.714H4.806C5.958 18.714 6.87 18.81 7.542 19.002C8.226 19.194 8.772 19.5 9.18 19.92C9.588 20.34 9.882 20.91 10.062 21.63C10.254 22.338 10.35 23.244 10.35 24.348C10.35 26.304 9.912 27.738 9.036 28.65C8.16 29.55 6.75 30 4.806 30ZM7.02 21.954C6.852 21.702 6.606 21.522 6.282 21.414C5.958 21.294 5.466 21.234 4.806 21.234H3.654V27.39H4.806C5.454 27.39 5.94 27.336 6.264 27.228C6.588 27.12 6.84 26.946 7.02 26.706C7.176 26.478 7.29 26.178 7.362 25.806C7.434 25.422 7.47 24.936 7.47 24.348C7.47 23.748 7.434 23.262 7.362 22.89C7.29 22.506 7.176 22.194 7.02 21.954ZM18.4961 25.248V18.714H21.2861V25.248C21.2861 26.892 20.8841 28.128 20.0801 28.956C19.2761 29.772 18.0701 30.18 16.4621 30.18C14.7701 30.18 13.5341 29.79 12.7541 29.01C11.9861 28.23 11.6021 26.976 11.6021 25.248V18.714H14.3921V25.248C14.3921 26.16 14.5301 26.778 14.8061 27.102C15.0941 27.414 15.6461 27.57 16.4621 27.57C17.2661 27.57 17.8061 27.414 18.0821 27.102C18.3581 26.778 18.4961 26.16 18.4961 25.248ZM28.3864 25.896V30H25.5964V18.714H33.2104V21.234H28.3864V23.556H32.5444V25.896H28.3864ZM41.2071 25.248V18.714H43.9971V25.248C43.9971 26.892 43.5951 28.128 42.7911 28.956C41.9871 29.772 40.7811 30.18 39.1731 30.18C37.4811 30.18 36.2451 29.79 35.4651 29.01C34.6971 28.23 34.3131 26.976 34.3131 25.248V18.714H37.1031V25.248C37.1031 26.16 37.2411 26.778 37.5171 27.102C37.8051 27.414 38.3571 27.57 39.1731 27.57C39.9771 27.57 40.5171 27.414 40.7931 27.102C41.0691 26.778 41.2071 26.16 41.2071 25.248ZM53.9335 18.714V21.234H50.8555V30H48.0655V21.234H44.9875V18.714H53.9335ZM61.8262 25.248V18.714H64.6162V25.248C64.6162 26.892 64.2142 28.128 63.4102 28.956C62.6062 29.772 61.4002 30.18 59.7922 30.18C58.1002 30.18 56.8642 29.79 56.0842 29.01C55.3162 28.23 54.9322 26.976 54.9322 25.248V18.714H57.7222V25.248C57.7222 26.16 57.8602 26.778 58.1362 27.102C58.4242 27.414 58.9762 27.57 59.7922 27.57C60.5962 27.57 61.1362 27.414 61.4122 27.102C61.6882 26.778 61.8262 26.16 61.8262 25.248ZM69.0446 26.364V30H66.2546V18.714H70.3766C72.1166 18.714 73.3526 19.008 74.0846 19.596C74.8166 20.184 75.1826 21.162 75.1826 22.53C75.1826 23.454 74.9846 24.21 74.5886 24.798C74.2046 25.374 73.6166 25.794 72.8246 26.058L75.5786 30H72.2306L69.8906 26.364H69.0446ZM72.3566 22.53C72.3566 22.05 72.2126 21.714 71.9246 21.522C71.6366 21.33 71.1206 21.234 70.3766 21.234H69.0446V24.114H70.3766C71.1206 24.114 71.6366 24 71.9246 23.772C72.2126 23.532 72.3566 23.118 72.3566 22.53Z" fill="white"/>
</svg>
