<svg width="24" height="41" viewBox="0 0 24 41" fill="none" xmlns="http://www.w3.org/2000/svg">
<g id="Thermometer (&#230;&#184;&#169;&#229;&#186;&#166;&#232;&#174;&#161;)">
<path id="Vector" d="M5.92798 22.3808V7.32882C5.92798 4.21132 8.62494 1.68408 11.9518 1.68408C15.2786 1.68408 17.9756 4.21132 17.9756 7.32882V22.3808C20.4141 24.0972 21.9915 26.8299 21.9915 29.9078C21.9915 35.1036 17.4965 39.3157 11.9518 39.3157C6.40708 39.3157 1.91211 35.1036 1.91211 29.9078C1.91211 26.8299 3.48944 24.0972 5.92798 22.3808Z" stroke="#DEF3FF" stroke-width="2" stroke-linejoin="round"/>
<path id="Vector_2" d="M11.9521 13.9146V26.1448" stroke="#DEF3FF" stroke-width="2" stroke-linecap="round" stroke-linejoin="round"/>
<path id="Vector_3" d="M11.9524 33.6711C14.1703 33.6711 15.9683 31.9862 15.9683 29.9079C15.9683 27.8296 14.1703 26.1448 11.9524 26.1448C9.73453 26.1448 7.93652 27.8296 7.93652 29.9079C7.93652 31.9862 9.73453 33.6711 11.9524 33.6711Z" stroke="#DEF3FF" stroke-width="2" stroke-linejoin="round"/>
</g>
</svg>
